PathFileType	4	(X/Y/Z)	Kaydara																																																																																																																									
DataRate	CameraRate	NumFrames	NumMarkers	Units	OrigDataRate	OrigDataStartFrame	OrigNumFrames																																																																																																																					
30	30	9	41	mm	30	256	341																																																																																																																					
Frame#	Time	NABA_LFHD			NABA_RFHD			NABA_LBHD			NABA_RBHD			NABA_LFTShould			NABA_RFTShould			NABA_LRRShould			NABA_RRRShould			NABA_T10			NABA_STRN			NABA_TRUN			NABA_LSHO			NABA_LUPA			NABA_LELB			NABA_LFRM			NABA_LWRA			NABA_LWRB			NABA_LFIN			NABA_RSHO			NABA_RUPA			NABA_RELB			NABA_RFRM			NABA_RWRA			NABA_RWRB			NABA_RFIN			NABA_LFWT			NABA_RFWT			NABA_LBWT			NABA_RBWT			NABA_LTHI			NABA_LKNE			NABA_LSHN			NABA_LANK			NABA_LHEE			NABA_LTOE			NABA_RTHI			NABA_RKNE			NABA_RSHN			NABA_RANK			NABA_RHEE			NABA_RTOE		
		X1	Y1	Z1	X2	Y2	Z2	X3	Y3	Z3	X4	Y4	Z4	X5	Y5	Z5	X6	Y6	Z6	X7	Y7	Z7	X8	Y8	Z8	X9	Y9	Z9	X10	Y10	Z10	X11	Y11	Z11	X12	Y12	Z12	X13	Y13	Z13	X14	Y14	Z14	X15	Y15	Z15	X16	Y16	Z16	X17	Y17	Z17	X18	Y18	Z18	X19	Y19	Z19	X20	Y20	Z20	X21	Y21	Z21	X22	Y22	Z22	X23	Y23	Z23	X24	Y24	Z24	X25	Y25	Z25	X26	Y26	Z26	X27	Y27	Z27	X28	Y28	Z28	X29	Y29	Z29	X30	Y30	Z30	X31	Y31	Z31	X32	Y32	Z32	X33	Y33	Z33	X34	Y34	Z34	X35	Y35	Z35	X36	Y36	Z36	X37	Y37	Z37	X38	Y38	Z38	X39	Y39	Z39	X40	Y40	Z40	X41	Y41	Z41
																																																																																																																												
256	8.51	336.98845	1459.35822	736.00639	166.79401	1433.27286	739.58038	353.30353	1523.76068	628.09486	135.17954	1488.82797	659.65111	318.52413	1295.60913	580.15869	190.28448	1290.39948	578.05744	322.28336	1366.00204	470.09991	175.77673	1360.49408	474.42795	258.91216	1211.0907	371.36272	255.71081	1233.98476	622.06512	255.43041	1130.75317	657.00325	410.95619	1327.27631	541.91357	479.95213	1104.85573	518.39741	484.10423	1003.0349	543.19916	478.18439	921.67091	523.97968	412.97054	778.4845	603.55724	485.85266	778.36082	607.26349	462.15965	724.29741	652.50992	107.25389	1321.81976	542.92786	39.74739	1130.81947	465.40462	10.03002	997.92679	506.34174	8.89764	900.55466	519.28181	84.5659	783.87924	602.15961	11.46479	770.63675	606.56353	28.23954	737.12296	638.38581	380.97466	921.48636	568.86597	117.46782	918.11981	561.56158	337.86129	981.70776	395.42877	166.18288	992.90054	386.92986	379.59129	619.68414	445.41424	365.88058	472.88002	509.20784	298.2304	278.96595	532.24678	321.63822	127.64628	463.10333	265.54195	83.74865	400.13943	288.60983	51.14875	584.37878	111.37868	625.07763	472.61513	111.70345	484.21947	627.30183	120.88901	330.59181	524.0871	112.4185	226.45802	348.97449	164.31442	231.69167	272.19763	118.5822	92.7149	382.35004
257	8.543	338.26042	1458.83499	748.50037	168.04583	1432.74124	751.11404	355.16117	1523.58444	640.88943	136.82205	1488.63937	671.20728	320.57358	1295.62317	591.847	192.62638	1290.18753	589.01318	324.81541	1366.07758	482.01397	178.29357	1360.52643	485.71583	261.72411	1211.21361	382.98615	257.67517	1234.11034	633.66161	257.32061	1130.79453	668.56148	413.13236	1327.35962	554.0979	481.69376	1104.57283	532.69535	485.32753	1002.97302	558.57811	479.28368	921.33026	540.12253	412.92057	779.24637	620.50133	485.64602	778.85002	625.00687	461.31634	725.35034	670.55473	109.64808	1321.6362	553.68286	42.11829	1129.82033	477.50648	12.885	997.31079	520.01934	12.40124	899.95071	534.12182	89.3519	784.5826	617.64534	16.26228	771.11008	622.92408	33.41625	738.05214	655.09224	383.00072	921.23482	580.39829	119.46058	919.39156	573.63899	339.05071	981.21887	406.81461	167.72163	992.76085	398.4634	379.33125	619.92008	453.77522	366.51981	472.23351	515.68127	298.67968	277.79451	535.97466	321.61053	127.82151	464.40861	264.92182	84.80975	401.12839	288.89395	50.96854	584.54357	111.32079	625.54665	494.54792	116.6569	491.08154	654.93027	123.75418	331.5292	561.1591	114.40966	214.76589	394.27059	167.00697	211.63082	317.05523	116.48932	90.16966	442.55909
258	8.577	339.36058	1458.56598	760.38612	169.10639	1432.48581	762.23297	356.68583	1523.47458	652.99164	138.26328	1488.47519	682.28256	322.47864	1295.32379	603.21293	194.54668	1289.90417	600.0256	326.84914	1365.88226	493.55194	180.35353	1360.28625	496.90292	263.94949	1211.11115	394.34223	259.57655	1233.84399	644.92157	259.19796	1130.50911	679.76059	415.03803	1327.12158	565.7354	483.19923	1103.89084	546.38382	486.07841	1002.50908	573.14499	479.79061	920.72876	555.40203	412.0475	779.8011	636.57234	484.80957	779.06265	641.61148	459.59446	726.01936	687.49649	111.77152	1321.17661	564.56406	44.13404	1128.72849	489.47426	15.78181	996.40732	533.10764	15.73521	899.12758	547.97848	93.61625	784.81972	632.20837	20.62478	771.02661	637.83833	38.17464	738.27621	670.16403	384.6553	920.76668	591.07018	121.07062	920.13153	585.3904	339.81014	980.52902	417.78824	168.8603	992.31621	409.69833	379.18827	620.08408	461.7635	367.132	471.63342	521.6111	299.03585	276.84904	539.67949	321.49754	127.99557	465.69096	264.49327	85.91292	401.74419	289.02834	50.83099	584.61945	111.4879	626.1071	514.47212	121.2986	497.45216	679.40155	126.32084	331.51936	598.02872	115.23677	199.21728	443.46111	167.67679	187.10344	366.10546	116.01935	83.91785	506.07243
259	8.61	340.39467	1458.32916	771.754	170.1292	1432.29248	773.24806	358.00301	1523.16345	664.34135	139.461	1488.18939	693.16597	324.00227	1294.53323	614.27063	196.0873	1289.10965	611.01116	328.34656	1365.30762	504.78424	181.84536	1359.71802	508.09639	265.42309	1210.67627	405.52929	261.30581	1232.98386	655.88455	260.93304	1129.71519	690.7608	416.47785	1326.44547	576.90655	484.29131	1102.87247	559.35955	486.38546	1001.54358	586.84135	479.84531	919.60632	569.74903	410.51273	779.89235	651.6806	483.1987	778.69125	657.45132	457.183	726.25244	703.57407	113.36673	1320.33035	575.62916	45.84633	1127.2493	501.10104	18.25207	995.12001	545.71922	18.7075	897.91153	561.03218	97.44495	784.22958	645.27107	24.48812	770.22171	651.4003	42.34832	737.57385	683.75351	385.97073	920.11253	602.1331	122.41348	920.33066	596.90197	340.43262	979.79706	428.70586	169.88667	991.79703	420.8659	379.45988	620.05016	469.85088	367.31194	470.95486	527.74467	299.20177	275.87986	542.86919	321.26041	128.05573	467.06078	264.18493	86.78229	402.48749	289.0827	50.75749	584.64245	112.46822	626.5934	532.43439	124.82491	502.96185	700.81879	128.7386	330.70473	634.20708	115.56173	182.55363	495.28267	166.077	161.12091	418.92464	117.96065	76.79138	570.93494
260	8.643	341.38783	1457.80182	782.91939	171.09728	1431.79138	784.36508	359.04469	1522.47345	675.43045	140.42331	1487.68463	704.18983	325.19238	1293.45139	625.09296	197.21844	1288.05374	622.05597	329.31252	1364.55109	515.79014	182.80281	1358.8945	519.34055	266.30695	1210.03906	416.49235	262.59113	1231.76384	666.69952	262.31018	1128.46291	701.4463	417.47822	1325.31967	587.6622	484.73125	1101.43776	571.22604	486.2413	1000.21683	599.58466	479.39232	918.14796	583.15838	408.56461	779.53011	665.79338	481.19923	778.0352	672.11533	454.43657	726.23558	718.54073	114.46429	1319.14902	586.83006	47.19764	1125.34698	512.67288	20.59031	993.33153	557.97123	21.33686	896.19797	573.33759	100.52723	782.66594	657.42256	27.60786	768.55255	663.72955	45.61652	736.00021	696.03752	386.91719	919.42162	613.30795	123.46158	920.0473	608.15407	341.06941	979.04137	439.60438	170.63936	991.0257	431.90693	379.83238	620.07092	477.84077	367.77317	470.24994	533.77258	299.51534	275.09171	546.44917	321.21368	128.13025	468.31844	263.9646	87.77051	403.39779	288.95214	50.67285	584.89655	113.49414	626.69849	548.38562	127.32622	507.08637	719.07677	130.24754	330.2795	668.25157	115.89386	166.98616	548.14106	165.44785	136.82172	473.90709	120.58262	71.1218	635.66135
261	8.677	342.14298	1456.83685	794.07555	171.86754	1430.86548	795.65071	359.75971	1521.54907	686.62086	141.17159	1486.79733	715.56969	325.93845	1292.23694	635.84358	197.71389	1286.93115	633.37132	329.73011	1363.6113	526.64684	183.22968	1357.91046	530.54817	266.72176	1209.18358	427.51614	263.32436	1230.38513	677.31453	263.15357	1127.16118	712.09206	418.01018	1324.09622	598.1081	484.67117	1099.93683	582.15858	485.73898	998.81546	611.19324	478.43956	916.59592	595.34657	406.18835	779.14474	678.79745	478.85139	777.1907	685.43968	451.54419	725.96329	732.14363	114.98903	1317.74643	597.89322	47.97783	1123.15575	524.2931	22.77447	991.19637	570.24254	23.67328	894.31427	585.20233	102.92253	780.37415	668.57674	30.08216	766.22208	674.91096	48.1066	733.53958	707.08183	387.6226	918.75214	624.39762	124.25391	919.50356	619.37584	341.68087	978.32588	450.65022	171.19389	990.14114	442.92114	380.06561	620.14053	485.59669	368.11405	469.72481	539.52702	299.9703	274.27094	549.73171	321.32599	128.35022	469.39762	263.81042	88.62071	404.27967	289.04953	50.4794	584.94076	114.23553	626.24977	562.45422	128.77254	509.63577	734.51057	131.38124	330.45078	700.05661	116.56893	153.81399	600.80906	165.73528	115.32686	530.47226	123.14477	67.73395	699.02336
262	8.71	342.58152	1455.46371	805.30006	172.29919	1429.58054	807.1843	359.98611	1520.33859	697.87788	141.4854	1485.59967	727.26303	326.09444	1290.94757	646.56662	197.81815	1285.55695	644.41818	329.60052	1362.52518	537.57771	183.14896	1356.66107	541.79504	266.68827	1208.15384	438.59169	263.56268	1229.12758	688.19008	263.52961	1125.89462	722.92915	418.09055	1322.86301	608.64868	484.25808	1098.56728	592.38335	484.97902	997.4398	621.64436	477.10503	915.04395	606.23791	403.68599	778.69736	690.58556	476.36227	776.20262	697.22931	448.67352	725.46806	744.19327	114.93185	1316.33881	609.07055	48.33637	1120.96909	535.96306	24.76732	989.05647	582.58911	25.57636	892.44629	596.74885	104.62203	777.46666	678.99582	31.49074	763.61092	685.32028	49.44718	730.77347	717.38945	388.02708	917.80113	635.27271	124.54489	918.72818	630.75878	341.931	977.41859	461.67141	171.61907	989.16313	454.07192	380.2211	619.87598	493.65765	368.43716	468.85826	545.77248	300.35242	273.26929	553.40607	321.18519	128.60199	470.46413	263.83923	89.48412	405.02377	289.09002	50.47558	584.95171	114.82529	625.46532	574.70306	129.3636	510.91743	747.79404	132.29881	331.07079	729.48776	118.07582	144.13257	651.32347	167.61318	98.24926	586.07513	125.97482	68.20061	759.14703
263	8.743	342.53555	1453.83011	816.76575	172.24443	1427.8627	819.00673	359.68311	1518.88245	709.43497	141.23971	1484.04892	739.24736	325.74001	1289.59091	657.64114	197.59096	1283.87802	655.58876	329.09485	1361.2439	548.77621	182.66224	1355.08926	553.2745	266.42092	1206.89499	449.86237	263.43842	1227.65854	699.32564	263.67268	1124.38103	733.95287	417.86469	1321.65283	619.48463	483.53424	1097.12158	602.2723	483.98506	995.9285	631.34315	475.49446	913.40584	616.07822	401.10359	777.91595	700.99762	473.78036	774.80103	707.47078	445.79613	724.51256	754.69162	114.5583	1314.52026	620.43365	48.48719	1118.63411	547.88006	26.16791	986.78032	594.85298	26.72391	890.41183	608.07938	105.14397	774.11919	688.95485	32.00709	760.69023	695.34737	49.67807	727.58392	727.14516	388.56567	916.41571	646.63124	124.43323	917.54532	642.32979	341.90388	976.07277	472.6643	171.75461	987.95479	465.36076	380.73826	619.59579	501.47018	368.2338	467.67048	552.69821	300.02066	272.0886	557.26994	321.03249	128.63714	472.03835	263.75526	90.35089	405.7946	289.06681	50.5641	585.04688	114.91737	624.30435	586.21883	129.52524	510.84316	759.16161	133.1877	331.85486	756.28632	120.44906	137.48794	698.6367	169.96304	85.39142	638.7093	129.39688	72.52362	814.45381
264	8.777	341.8898	1451.93726	828.69965	171.65678	1425.71274	831.01929	358.85231	1517.21802	721.44814	140.51179	1481.99585	751.40358	325.25261	1287.83951	669.04274	197.06255	1281.79718	667.2094	328.23883	1359.729	560.40588	181.81448	1353.15659	565.14214	265.78064	1205.37437	461.42708	263.08754	1225.70518	710.80009	263.64109	1122.32964	745.22835	417.26192	1320.17075	630.78251	482.73777	1095.56831	612.09049	482.93804	994.10637	640.60204	473.90804	911.60965	625.13649	398.57536	776.53023	710.03685	471.25782	772.8392	716.35674	443.01125	722.75513	763.61313	113.92006	1312.27188	632.2245	48.42752	1115.93536	559.83227	26.83281	984.12888	606.89781	27.20149	887.95204	619.1951	104.90702	770.60493	699.23569	31.74071	757.35123	705.16563	49.18698	723.78189	736.67206	388.65364	914.63837	657.42516	124.47063	915.92606	653.96179	341.46252	974.58702	483.93867	171.3793	986.31363	476.9001	380.27359	618.80802	510.37437	367.93156	466.50139	559.99317	299.79427	270.64425	561.11736	320.85934	128.47293	473.67298	263.53466	91.23093	406.62498	289.19176	50.52409	585.12653	114.44385	622.56702	597.32552	129.5756	509.60186	769.18694	134.07834	332.83409	780.27901	122.88761	133.78462	742.03613	171.75474	76.55579	686.9014	133.78946	79.29579	864.07326
